# Blender 4.1.0
# www.blender.org
mtllib fence.mtl
o Cube
v -0.453772 -0.500000 0.063352
v -0.453772 0.500000 0.063352
v -0.453772 -0.500000 -0.063352
v -0.453772 0.500000 -0.063352
v -0.161332 -0.500000 0.063352
v -0.161332 0.500000 0.063352
v -0.161332 -0.500000 -0.063352
v -0.161332 0.500000 -0.063352
v 0.170356 -0.500000 0.030718
v 0.170356 0.500000 0.030718
v 0.170356 -0.500000 -0.095986
v 0.170356 0.500000 -0.095986
v 0.421014 -0.500000 0.030718
v 0.421014 0.500000 0.030718
v 0.421014 -0.500000 -0.095986
v 0.421014 0.500000 -0.095986
v 0.513893 0.156489 0.050817
v -0.483548 0.115344 0.101217
v 0.507555 0.155155 -0.075721
v -0.489887 0.114010 -0.025322
v 0.498960 0.394541 0.049056
v -0.498481 0.353396 0.099455
v 0.492622 0.393207 -0.077483
v -0.504820 0.352062 -0.027084
v 0.499406 -0.310694 0.052235
v -0.498198 -0.254563 0.078982
v 0.495546 -0.307730 -0.052460
v -0.502058 -0.251599 -0.025713
v 0.517570 -0.043689 0.059336
v -0.480034 0.012442 0.086083
v 0.513710 -0.040725 -0.045359
v -0.483894 0.015406 -0.018612
vn -1.0000 -0.0000 -0.0000
vn -0.0000 -0.0000 -1.0000
vn 1.0000 -0.0000 -0.0000
vn -0.0000 -0.0000 1.0000
vn -0.0000 -1.0000 -0.0000
vn -0.0000 1.0000 -0.0000
vn 0.0416 -0.9991 0.0084
vn -0.0500 -0.0105 -0.9987
vn -0.0416 0.9991 -0.0084
vn 0.0500 0.0105 0.9987
vn 0.9968 0.0622 -0.0506
vn -0.9968 -0.0622 0.0506
vn -0.0569 -0.9980 -0.0262
vn -0.0252 0.0283 -0.9993
vn 0.0569 0.9980 0.0262
vn 0.0252 -0.0283 0.9993
vn 0.9970 -0.0668 -0.0387
vn -0.9970 0.0668 0.0387
vt 0.375000 0.000000
vt 0.625000 0.000000
vt 0.625000 0.250000
vt 0.375000 0.250000
vt 0.625000 0.500000
vt 0.375000 0.500000
vt 0.625000 0.750000
vt 0.375000 0.750000
vt 0.625000 1.000000
vt 0.375000 1.000000
vt 0.125000 0.500000
vt 0.125000 0.750000
vt 0.875000 0.500000
vt 0.875000 0.750000
s 0
usemtl Material
f 1/1/1 2/2/1 4/3/1 3/4/1
f 3/4/2 4/3/2 8/5/2 7/6/2
f 7/6/3 8/5/3 6/7/3 5/8/3
f 5/8/4 6/7/4 2/9/4 1/10/4
f 3/11/5 7/6/5 5/8/5 1/12/5
f 8/5/6 4/13/6 2/14/6 6/7/6
f 9/1/1 10/2/1 12/3/1 11/4/1
f 11/4/2 12/3/2 16/5/2 15/6/2
f 15/6/3 16/5/3 14/7/3 13/8/3
f 13/8/4 14/7/4 10/9/4 9/10/4
f 11/11/5 15/6/5 13/8/5 9/12/5
f 16/5/6 12/13/6 10/14/6 14/7/6
f 17/1/7 18/2/7 20/3/7 19/4/7
f 19/4/8 20/3/8 24/5/8 23/6/8
f 23/6/9 24/5/9 22/7/9 21/8/9
f 21/8/10 22/7/10 18/9/10 17/10/10
f 19/11/11 23/6/11 21/8/11 17/12/11
f 24/5/12 20/13/12 18/14/12 22/7/12
f 25/1/13 26/2/13 28/3/13 27/4/13
f 27/4/14 28/3/14 32/5/14 31/6/14
f 31/6/15 32/5/15 30/7/15 29/8/15
f 29/8/16 30/7/16 26/9/16 25/10/16
f 27/11/17 31/6/17 29/8/17 25/12/17
f 32/5/18 28/13/18 26/14/18 30/7/18
